PathFileType	4	(X/Y/Z)	3_1_23_p0_0-501_filt_butterworth.trc
DataRate	CameraRate	NumFrames	NumMarkers	Units	OrigDataRate	OrigDataStartFrame	OrigNumFrames
60.0	60.0	5	27	m	60.0	313	501
Frame#	Time	RHip			RKnee			RAnkle			RBigToe			RSmallToe			RHeel			LHip			LKnee			LAnkle			LBigToe			LSmallToe			LHeel			Neck			Head			Nose			RShoulder			RElbow			RWrist			RThumb			RIndex			RPinky			LShoulder			LElbow			LWrist			LThumb			LIndex			LPinky			
		X1	Y1	Z1	X2	Y2	Z2	X3	Y3	Z3	X4	Y4	Z4	X5	Y5	Z5	X6	Y6	Z6	X7	Y7	Z7	X8	Y8	Z8	X9	Y9	Z9	X10	Y10	Z10	X11	Y11	Z11	X12	Y12	Z12	X13	Y13	Z13	X14	Y14	Z14	X15	Y15	Z15	X16	Y16	Z16	X17	Y17	Z17	X18	Y18	Z18	X19	Y19	Z19	X20	Y20	Z20	X21	Y21	Z21	X22	Y22	Z22	X23	Y23	Z23	X24	Y24	Z24	X25	Y25	Z25	X26	Y26	Z26	X27	Y27	Z27	
313	5.216666666666667	0.1474617389897564	0.4073344995316978	0.8986555806047123	0.1728372757873103	0.39971270824227545	1.370906813216225	0.14395163319650622	0.4802763581880095	1.8113922494496186	0.17361553406699012	0.26667387368036183	1.8094979649610095	0.21631228180476272	0.30013135569513394	1.8124534527456366	0.13625719817160376	0.505735268445476	1.8660368997981507	-0.026371577311574263	0.34521523134568743	0.8926863515018137	-0.018538019878403502	0.3766708342185369	1.3759274194238083	0.008126844923446385	0.43637846657568047	1.8237988238208562	0.03223910976577733	0.24917075780673467	1.8192633566475584	-0.03522754826558771	0.28979945631440945	1.825753380903186	0.011116604174420527	0.5067637420648132	1.8772700621593827	0.10204817970013312	0.30540418833831406	0.46170676936424077	0.1813859925156904	0.08826857626211718	0.20590951924222778	0.19859164964538809	0.1780878139148961	0.40386645653026987	0.2005960612369327	0.39530174166445603	0.45136781675642934	0.24801420488381187	0.46135792075694115	0.7056508973289867	0.3678006206394101	0.3344653843390187	0.9007942727155895	0.495854820624214	0.3042056389721422	0.9851433377090757	0.48443098163672743	0.2805691189529063	1.0029452123550333	0.4122439979683669	0.3313310757126011	1.0308808095849402	-0.027327638982558473	0.2469718932415448	0.4835861803913801	0.09184350766229502	0.2608286886351943	0.7336453294139824	0.3102035485403025	0.24032307493372335	0.8870962549572375	0.44643802418484646	0.22898912927521364	0.9136334613148128	0.42473600525404387	0.23248118854124702	0.9630150933217515	0.3636582834471169	0.2055662934673132	0.9858197590213562
314	5.233333333333333	0.14740294381163183	0.4053891977722859	0.8992447815737027	0.17288759492052763	0.39991285040512375	1.370909508961526	0.14491761374696607	0.4839733034140835	1.8138714471007056	0.17357929704976782	0.2668081466442569	1.810302670386331	0.21714975896768815	0.30376548018005634	1.8144575582951934	0.13631045818921858	0.5059205254229354	1.865850935869223	-0.026391555148154763	0.3450168540364777	0.8925462329914635	-0.018558159416781655	0.3767643831066928	1.3766213500312738	0.008119515508179626	0.4363317059829037	1.8236843693327005	0.03151255152348157	0.2489221106265915	1.8200558263789732	-0.036845742792644465	0.289042111940361	1.828059534228497	0.011251810914012849	0.5066354720374027	1.8763254947510517	0.10383069510948305	0.305876217867541	0.46212842240641294	0.18273774371353219	0.08514673505016807	0.2056918551710221	0.2008723573938761	0.180171200325945	0.40505332900740776	0.20222059651803162	0.3938285780009295	0.45297410460580073	0.25855128838698227	0.45164601082024014	0.7031467447952235	0.3736460474262047	0.327917384638486	0.8972922867283567	0.5027662582578654	0.3042637388813729	0.9718978593947126	0.4867279379924798	0.2796162013009944	0.9922637602145509	0.4243630817514425	0.30894196241672134	1.0230923193689163	-0.027621764670414425	0.24862876139967657	0.483455252251432	0.10795898440825467	0.23955359889810476	0.7279886514116087	0.31892189804557697	0.23562776826031825	0.8821810034988614	0.46420375532358604	0.23411029253388696	0.9069683658307297	0.42683489936432384	0.2526972895948577	0.957446822650428	0.36824851415612603	0.23193864847998644	0.9900168918994261
315	5.25	0.14751782519056486	0.39990536442978597	0.8996190509396893	0.17269334510946602	0.40008762905917	1.3709151996128164	0.14566015059619153	0.48546331433475776	1.8159401551503314	0.17360009693452627	0.26683226764399587	1.810206025443823	0.21778494615073396	0.30656786419069865	1.8160419851195975	0.13634778216196752	0.5060746013808962	1.8657359202270487	-0.02629877185855857	0.3453059267045931	0.8927617481833544	-0.018417753432374687	0.3768800459394976	1.3767709736271423	0.008173610674941443	0.4362481923311545	1.823624552138096	0.030563771445002927	0.2470656040534179	1.818152077792844	-0.03763169586458395	0.28734219547658524	1.828778673461468	0.011288619589291855	0.5064541734949792	1.8763641179195307	0.10477362975015347	0.3091770771209825	0.46313172331346975	0.1835218722615015	0.08281013007169433	0.20552865227693015	0.20229287119076966	0.18143155362325894	0.40636586106269873	0.20479859348227195	0.39075626355893395	0.4534131749004734	0.27000850214125477	0.4397356043149292	0.6972821708219065	0.37959558443815317	0.3304315361336708	0.8930854069204744	0.5103392652029618	0.3040449460452497	0.9587542028114581	0.4913233045739037	0.2849588878193513	0.981012998528576	0.4439765568565295	0.29534831479580415	1.0140619825342534	-0.026547827420904384	0.24892152259552927	0.4840650075556102	0.1284358109842043	0.2066453003424274	0.7204055097809942	0.32492255364397765	0.23403485739344898	0.8784082075139279	0.47886353105457974	0.2349363272259759	0.9036370133296185	0.42810665590821007	0.26898303200539186	0.9536053316178865	0.36623049587378376	0.260633545065772	0.9968949265277703
316	5.266666666666667	0.14789233335499297	0.38858273505321034	0.9000055430001423	0.1725599353684754	0.40016691913193225	1.370902191996806	0.14596894550139936	0.4854939134458297	1.8169832548122886	0.17358850574460094	0.2667931141576288	1.8099533362053752	0.21790227869158027	0.30761468568848566	1.8166213105527023	0.13636904567280753	0.5060664970401482	1.8657784565384627	-0.026039153126205555	0.34634157094975293	0.8943202926999854	-0.01825165744663329	0.3770962577424019	1.3767425064625165	0.008286543898764674	0.43616400435083263	1.823613509901925	0.02918643579592292	0.24379967794398605	1.814288064456711	-0.0383405591408454	0.28609689250494064	1.827621382849803	0.011294906745262217	0.5059638663962357	1.8768454164043573	0.10520386620791282	0.3138713026455931	0.46491323657121886	0.1833710923482911	0.08028064244745635	0.20543972989536274	0.20274790210969798	0.1811903101709433	0.4068705756916226	0.2074626339884923	0.38658453818702604	0.4529123583723776	0.28010207623828615	0.42717220978473414	0.6898018384517246	0.38527482892778814	0.3411107180960512	0.8892781058487615	0.5162527473061327	0.29937925149653627	0.9490695811798924	0.49807003456670984	0.29419283798821844	0.972838702017373	0.46546252698897583	0.3040690033064023	1.0076004429310332	-0.024946161037613324	0.25041052805914116	0.48528495346070527	0.1473858951606396	0.17307121052396118	0.7133222557105096	0.3274518687822786	0.23441894690266207	0.8771950804818066	0.48214862244916357	0.2293029850241639	0.9039197422831917	0.4291161618902224	0.2741522559579492	0.9496693945980113	0.3620958501030944	0.2798707145990958	1.0019654578241812
317	5.283333333333333	0.1481210806291259	0.37614525406756805	0.9001728951881754	0.1725294712502329	0.4001985776091691	1.370929526574817	0.14593232608528559	0.48513010016182173	1.8169171465044673	0.17349613830825028	0.26674110949691876	1.8098196145466396	0.21762975679762958	0.3074874916906977	1.8164936976745234	0.13639542577185096	0.5058847394715613	1.8659043344175859	-0.025715627403989888	0.34771290539907546	0.896405763201322	-0.018118291095955374	0.3774046622024711	1.3768399540046703	0.008396191510764095	0.43612081661537316	1.8236218597610452	0.02792291038457112	0.2413747515793837	1.8106061882371869	-0.03925387800038651	0.2854990657373072	1.824968149758433	0.011438592191453333	0.5054332475837333	1.877922343035653	0.1060391146520448	0.31772406222981675	0.4668219831725129	0.18264006551704492	0.0773533900106064	0.20539922463438193	0.20274422386521523	0.1790141537908028	0.4060775636295147	0.20918630742640032	0.3832705713396173	0.4522860086774608	0.288024304288778	0.41457767166085996	0.6824205573452952	0.3916826234052885	0.3563821769029383	0.8871106453607268	0.5195918387053736	0.2905741848484711	0.9413586449239382	0.5076201617208348	0.3078737900823989	0.9699469848965268	0.48612306081577483	0.3388139284758051	1.006130099520284	-0.023514204150255038	0.2541689544097745	0.4872785740371215	0.16012204382706455	0.1500555879069685	0.7086761691680881	0.32815545653869876	0.23315823080362752	0.8777554325863213	0.4736141409138539	0.21617761013326076	0.9072331832557966	0.430625838389158	0.2691959515560999	0.9448718990413142	0.3600892855617482	0.286391712960854	1.0034166140561256
